<svg id="Layer_1" data-name="Layer 1" xmlns="http://www.w3.org/2000/svg" viewBox="0 0 10 10"><defs><style>.cls-1{fill:#333;}.cls-2{fill:#fff;}</style></defs><title>link-help--black</title><rect class="cls-1" width="10" height="10" rx="4.74" ry="4.74"/><path class="cls-2" d="M3.85,2.5a2,2,0,0,1,1.08-.28,2.33,2.33,0,0,1,1.4.4,1.38,1.38,0,0,1,.56,1.19,1.35,1.35,0,0,1-.24.82,2.79,2.79,0,0,1-.54.52l-0.26.21a0.8,0.8,0,0,0-.29.39,1.66,1.66,0,0,0,0,.44h-1a2.93,2.93,0,0,1,.12-0.87,1.54,1.54,0,0,1,.5-0.55l0.27-.21A1,1,0,0,0,5.6,4.33a0.75,0.75,0,0,0,.15-0.45,0.87,0.87,0,0,0-.17-0.52A0.7,0.7,0,0,0,5,3.13a0.67,0.67,0,0,0-.61.29,1.11,1.11,0,0,0-.18.6H3.11A1.74,1.74,0,0,1,3.85,2.5ZM4.47,6.7H5.59V7.78H4.47V6.7Z"/></svg>