<?xml version="1.0" encoding="utf-8"?>
<!-- Generator: Adobe Illustrator 19.2.1, SVG Export Plug-In . SVG Version: 6.00 Build 0)  -->
<svg version="1.1" id="Layer_1" xmlns="http://www.w3.org/2000/svg" xmlns:xlink="http://www.w3.org/1999/xlink" x="0px" y="0px"
	 viewBox="0 0 12 12" style="enable-background:new 0 0 12 12;" xml:space="preserve">
<style type="text/css">
	.st0{fill:#FFFFFF;}
	.st1{fill:#858585;}
</style>
<title>timeline-future</title>
<circle class="st0" cx="6" cy="6" r="6"/>
<g>
	<path class="st1" d="M6,11c-0.9,0-1.7-0.2-2.5-0.7l0.8-1.5C5.2,9.4,6.2,9.5,7,9.2l0.5,1.6C7.1,10.9,6.5,11,6,11z M9.4,9.7L8.2,8.5
		C8.9,7.8,9.3,6.9,9.3,6l1.7,0v0C11,7.4,10.4,8.8,9.4,9.7z M2,9C1.3,8.1,1,7.1,1,6c0-0.3,0-0.7,0.1-1l1.6,0.3c0,0.2-0.1,0.4-0.1,0.7
		c0,0.7,0.2,1.4,0.6,2L2,9z M9,4.6C8.6,3.7,7.9,3.1,7,2.8l0.5-1.6c1.3,0.4,2.5,1.4,3,2.7L9,4.6z M3.3,4l-1.4-1C2.8,1.9,4,1.2,5.4,1
		l0.2,1.7C4.7,2.8,3.8,3.3,3.3,4z"/>
</g>
</svg>
