<?xml version="1.0" encoding="utf-8"?>
<!-- Generator: Adobe Illustrator 19.2.1, SVG Export Plug-In . SVG Version: 6.00 Build 0)  -->
<svg version="1.1" id="Layer_1" xmlns="http://www.w3.org/2000/svg" xmlns:xlink="http://www.w3.org/1999/xlink" x="0px" y="0px"
	 viewBox="0 0 10 10" style="enable-background:new 0 0 10 10;" xml:space="preserve">
<style type="text/css">
	.st0{fill:#FFFFFF;}
	.st1{fill:#858585;}
</style>
<title>timeline-future</title>
<circle class="st0" cx="5" cy="5" r="5"/>
<g>
	<path class="st1" d="M5,10c-0.9,0-1.7-0.2-2.5-0.7l0.8-1.5C4.2,8.4,5.2,8.5,6,8.2l0.5,1.6C6.1,9.9,5.5,10,5,10z M8.4,8.7L7.2,7.5
		C7.9,6.8,8.3,5.9,8.3,5l1.7,0v0C10,6.4,9.4,7.8,8.4,8.7z M1,8C0.3,7.1,0,6.1,0,5c0-0.3,0-0.7,0.1-1l1.6,0.3c0,0.2-0.1,0.4-0.1,0.7
		c0,0.7,0.2,1.4,0.6,2L1,8z M8,3.6C7.6,2.7,6.9,2.1,6,1.8l0.5-1.6c1.3,0.4,2.5,1.4,3,2.7L8,3.6z M2.3,3l-1.4-1C1.8,0.9,3,0.2,4.4,0
		l0.2,1.7C3.7,1.8,2.8,2.3,2.3,3z"/>
</g>
</svg>
